<?xml version="1.0" encoding="utf-8"?>
<!-- Generator: Adobe Illustrator 19.2.0, SVG Export Plug-In . SVG Version: 6.00 Build 0)  -->
<svg version="1.1" id="Слой_1" xmlns="http://www.w3.org/2000/svg" xmlns:xlink="http://www.w3.org/1999/xlink" x="0px" y="0px"
	 viewBox="0 0 512 471.585" enable-background="new 0 0 512 471.585" xml:space="preserve">
<g>
	<polygon fill="#4D4B4B" points="243.427,112.268 243.427,268.717 343.142,268.717 343.142,241.21 270.935,241.21 270.935,112.268 	
		"/>
	<path fill="#4D4B4B" d="M512,237.718C512,106.624,405.201,0,274.109,0C156.524,0,58.658,86.48,39.726,198.229H1.542l65.849,113.468
		l67.778-113.468H95.699c18.062-82.522,91.284-143.214,178.537-143.214c100.755,0,182.749,81.96,182.749,182.715
		c0,87.065-62.267,160.078-143.07,178.319v56.083C425.664,453.198,512,355.299,512,237.718z"/>
	<path fill="#4D4B4B" d="M41.928,447.261l17.493-18.597c11.366-12.37,19.164-21.628,23.397-27.901
		c4.233-6.275,6.349-13.461,6.349-21.631c0-12.136-3.982-21.676-11.943-28.665c-7.962-6.982-19.045-10.472-33.253-10.472
		c-13.381,0-24.124,4.167-32.234,12.482c-8.111,8.318-12.019,18.695-11.722,30.652l0.179,0.774h29.302
		c0-6.877,1.288-11.025,3.863-14.844c2.575-3.822,6.112-5.847,10.613-5.847c5.03,0,8.804,1.42,11.319,4.382
		c2.517,2.959,3.774,6.894,3.774,11.869c0,3.492-1.243,7.59-3.729,12.325c-2.486,4.738-6.071,10.116-11.335,16.157l-41.265,43.68
		v19.958h89.399v-24.069H42.195C42.195,447.516,41.928,447.261,41.928,447.261z"/>
	<path fill="#4D4B4B" d="M174.659,342.643h-29.227v-0.504L93.25,425.661l1.451,18.416h50.731v27.507h29.227v-27.507h13.754v-22.35
		h-13.754L174.659,342.643L174.659,342.643z M145.432,421.727h-25.689l22.2-36.937l2.632-3.884l0.856-0.05V421.727z"/>
	<path fill="#4D4B4B" d="M286.408,471.585v-55.656c0-4.136,0.103-7.931-0.354-11.45c-1.159-8.871-3.564-15.822-7.63-20.782
		c-5.685-6.927-13.408-10.389-23.354-10.389c-5.032,0-9.263,1.198-13.437,3.597c-4.174,2.398-8.52,5.759-10.24,10.08v-46.06h-30.946
		v130.66h30.946v-70.307c0-1.539,2.869-2.737,5.003-3.597c2.128-0.856,4.482-1.286,7.382-1.286c4.559,0,7.902,1.391,10.121,4.171
		c2.221,2.783,3.282,7.845,3.282,15.188v55.832h10.453H286.408L286.408,471.585z"/>
</g>
</svg>
