<?xml version="1.0" encoding="utf-8"?>
<!-- Generator: Adobe Illustrator 19.2.0, SVG Export Plug-In . SVG Version: 6.00 Build 0)  -->
<svg version="1.1" id="Capa_1" xmlns="http://www.w3.org/2000/svg" xmlns:xlink="http://www.w3.org/1999/xlink" x="0px" y="0px"
	 viewBox="0 0 512 512" enable-background="new 0 0 512 512" xml:space="preserve">
<g>
	<path fill="#4D4B4B" d="M271.224,329.913c0,7.387-1.608,13.854-4.764,19.451c-6.021,10.902-17.025,16.718-32.947,17.456v-73.507
		c11.676,3.171,19.933,6.503,24.865,10.032C266.927,309.453,271.224,318.251,271.224,329.913z M193.983,210.087
		c-5.261,6.956-7.833,14.27-7.833,21.921c0,9.199,3.069,16.44,9.214,21.643c6.13,5.224,14.46,8.892,24.829,10.902V198.9
		C207.924,199.383,199.149,203.087,193.983,210.087z M503.495,8.673c17.566,17.602,7.102,55.642-23.82,86.586
		c-13.028,12.999-27.262,22.169-40.75,27.379l-5.414,106.768c-1.052,19.933-13.437,47.831-27.54,61.933L196.095,501.244
		c-14.132,14.139-37.28,14.139-51.411,0L10.588,367.119c-14.117-14.124-14.117-37.236,0-51.353L220.5,105.855
		c14.117-14.117,41.985-26.509,61.933-27.503l107.294-5.458c5.254-13.342,14.314-27.408,27.247-40.297
		C447.882,1.564,485.951-8.929,503.495,8.673z M296.323,323.103c0-17.157-6.247-30.104-18.852-38.814
		c-7.723-5.319-22.374-11.019-43.995-17.054V199.2c12.867,0.482,22.198,5.392,28.095,14.796c3.135,5.137,5.078,11.238,5.729,18.289
		h24.456c-0.46-15.768-5.663-28.497-15.6-38.091c-9.908-9.587-24.149-15.067-42.643-16.382v-18.274h-13.299v18.567
		c-18.706,0.227-33.224,5.992-43.637,17.354c-10.368,11.37-15.6,24.12-15.6,38.244c0,15.856,4.808,28.226,14.511,37.192
		c9.587,8.936,24.544,15.301,44.725,19.151v76.123c-15.768-1.323-26.531-7.197-32.362-17.756c-3.273-5.919-5.312-15.22-6.043-27.949
		h-24.712c0,16.009,2.674,28.753,7.964,38.135c9.704,17.434,28.095,26.999,55.145,28.796v27.087h13.299v-27.087
		c16.842-1.885,29.724-5.677,38.675-11.494C288.3,365.453,296.323,347.866,296.323,323.103z M418.662,127.425
		c-10.317,0.548-19.305-2.009-25.64-8.279c-6.401-6.43-8.995-15.666-8.301-26.232c-1.432,0.957-2.835,2.002-4.114,3.303
		c-9.594,9.623-9.594,25.311,0,35.007c9.667,9.638,25.304,9.638,35,0C416.762,130.026,417.792,128.74,418.662,127.425z
		 M415.608,96.21c-5.765-5.78-13.73-8.023-21.197-6.898c-1.637,9.769-0.161,18.128,5.086,23.404
		c5.181,5.188,13.379,6.708,22.966,5.21C423.726,110.239,421.497,102.114,415.608,96.21z M423.375,38.968
		c-10.602,10.507-18.501,22.235-23.579,33.37l5.568-0.292c19.904-1.06,35.416,14.438,34.415,34.423l-0.351,6.035
		c11.253-5.034,23.119-13.021,33.802-23.689c26.436-26.451,37.338-60.216,23.82-73.719C483.547,1.6,449.782,12.509,423.375,38.968z"
		/>
</g>
</svg>
