<?xml version="1.0" encoding="utf-8"?>
<!-- Generator: Adobe Illustrator 19.2.0, SVG Export Plug-In . SVG Version: 6.00 Build 0)  -->
<svg version="1.1" id="Capa_1" xmlns="http://www.w3.org/2000/svg" xmlns:xlink="http://www.w3.org/1999/xlink" x="0px" y="0px"
	 viewBox="0 0 512 499.227" enable-background="new 0 0 512 499.227" xml:space="preserve">
<g>
	<g>
		<path fill="#4D4B4B" d="M452.433,265.212H397.12v-5.132h62.402c14.101,0,25.529-12.994,25.529-29.027V29.027
			C485.051,12.995,473.622,0,459.522,0H53.892C39.791,0,28.364,12.994,28.364,29.027v202.028c0,16.032,11.429,29.027,25.529,29.027
			h55.313v5.132H59.567c-18.516,0-33.63,14.866-34.03,33.281L0.119,451.028L0,452.424c0,14.101,2.919,46.803,17.019,46.803h477.962
			c14.092,0,17.011-32.66,17.019-46.769c0-0.008,0-0.017,0-0.034l-25.538-153.931C486.063,280.078,470.949,265.212,452.433,265.212z
			 M64.904,218.307V35.29h387.522v183.017C452.424,218.307,64.904,218.307,64.904,218.307z M477.962,465.189H34.038
			c-5.021,0-16.576-1.2-17.011-12.135l22.584-135.516l2.816-16.892l0.119-1.396c0-9.386,7.633-17.019,17.019-17.019H452.43
			c9.386,0,17.019,7.633,17.019,17.019l3.063,18.449l22.457,135.355C494.538,463.989,482.982,465.189,477.962,465.189z"/>
		<path fill="#4D4B4B" d="M307.275,413.263h-6.399l4.561,27.818l-98.907-0.052l4.169-27.767h-5.973h-6.468l-4.731,28.32
			l-0.084,1.047c0,6.501,5.132,11.207,12.186,11.207h100.746c7.055,0,12.177-4.714,12.177-11.207l-4.825-29.366h-6.451V413.263z"/>
		<path fill="#4D4B4B" d="M423.814,306.05c0-2.358-4.766-5.931-11.931-5.931H97.282c-6.918,0-11.931,3.541-11.931,5.931
			l-0.084,1.166l-0.077,0.544l-11.726,85.189c0.485,1.242,4.637,3.301,11.88,3.301H208.58h94.839h120.395
			c7.25,0,11.402-2.051,11.88-3.301l-11.65-85.189L423.814,306.05z"/>
	</g>
</g>
</svg>
