<?xml version="1.0" encoding="utf-8"?>
<!-- Generator: Adobe Illustrator 19.2.0, SVG Export Plug-In . SVG Version: 6.00 Build 0)  -->
<svg version="1.1" id="Capa_1" xmlns="http://www.w3.org/2000/svg" xmlns:xlink="http://www.w3.org/1999/xlink" x="0px" y="0px"
	 viewBox="0 0 512 512" enable-background="new 0 0 512 512" xml:space="preserve">
<g>
	<path fill="#4D4B4B" d="M478.223,41.062l-17.816-15.76c-41.493-36.794-105.031-32.979-141.813,8.525l-50.989,57.524
		c-11.508,12.986-10.312,32.922,2.668,44.441l4.786,4.246c13.025,11.548,32.9,10.356,44.457-2.671l50.985-57.522
		c11.373-12.82,31.074-13.999,43.901-2.644l17.795,15.787c12.831,11.369,14.039,31.067,2.65,43.894L323.356,262.654
		c-9.436,10.662-24.876,13.538-37.548,6.99c-13.857-7.156-30.757-4.012-41.104,7.657l-0.869,0.981
		c-7.001,7.895-9.919,18.377-8.007,28.758c1.914,10.376,8.373,19.128,17.723,24.014c14.786,7.728,30.753,11.469,46.564,11.469
		c28.017,0,55.549-11.746,75.165-33.867l111.483-125.759C523.503,141.45,519.679,77.831,478.223,41.062z"/>
	<path fill="#4D4B4B" d="M241.708,376.243l-4.796-4.25c-12.995-11.514-32.936-10.303-44.446,2.686l-50.965,57.517
		c-11.378,12.816-31.065,14.005-43.882,2.657l-17.82-15.809c-12.834-11.366-14.039-31.047-2.646-43.878L188.64,249.402
		c9.243-10.439,24.451-13.424,36.986-7.266c14.405,7.078,31.897,3.637,42.561-8.399l0.4-0.451c6.851-7.735,9.733-18,7.912-28.165
		c-1.822-10.166-8.088-18.79-17.196-23.664c-41.178-22.043-91.578-13.024-122.564,21.943L25.244,329.139v0.002
		c-36.746,41.448-32.923,105.065,8.525,141.82l17.816,15.782c19.09,16.925,42.877,25.239,66.584,25.239
		c27.768,0,55.421-11.413,75.252-33.775l50.972-57.517C255.926,407.669,254.743,387.798,241.708,376.243z"/>
</g>
</svg>
