<?xml version="1.0" encoding="utf-8"?>
<!-- Generator: Adobe Illustrator 19.2.0, SVG Export Plug-In . SVG Version: 6.00 Build 0)  -->
<svg version="1.1" id="Capa_1" xmlns="http://www.w3.org/2000/svg" xmlns:xlink="http://www.w3.org/1999/xlink" x="0px" y="0px"
	 viewBox="0 0 512 512" enable-background="new 0 0 512 512" xml:space="preserve">
<g>
	<path fill="#4D4B4B" d="M500.619,444.926L395.081,339.392c25.434-36.715,38.157-77.645,38.157-122.769
		c0-29.333-5.695-57.387-17.084-84.155c-11.382-26.772-26.768-49.848-46.153-69.233c-19.385-19.385-42.457-34.771-69.224-46.154
		C274.002,5.696,245.95,0.003,216.617,0.003c-29.331,0-57.385,5.692-84.153,17.078c-26.772,11.383-49.848,26.769-69.233,46.154
		C43.845,82.62,28.461,105.7,17.077,132.468C5.692,159.239,0,187.29,0,216.623c0,29.331,5.692,57.375,17.077,84.15
		c11.383,26.768,26.768,49.841,46.155,69.225c19.385,19.391,42.465,34.771,69.233,46.16c26.771,11.384,54.822,17.075,84.153,17.075
		c45.133,0,86.057-12.724,122.774-38.156L444.93,500.306c7.384,7.793,16.603,11.692,27.689,11.692
		c10.666,0,19.902-3.898,27.691-11.692c7.792-7.792,11.691-17.023,11.691-27.689C512.004,461.751,508.21,452.516,500.619,444.926z
		 M314.003,313.998c-26.974,26.978-59.433,40.467-97.386,40.467c-37.946,0-70.405-13.492-97.381-40.467
		c-26.976-26.974-40.463-59.429-40.463-97.381c0-37.946,13.491-70.411,40.463-97.381c26.971-26.977,59.435-40.463,97.381-40.463
		c37.948,0,70.408,13.492,97.386,40.463c26.978,26.971,40.466,59.435,40.466,97.381
		C354.469,254.569,340.977,287.024,314.003,313.998z"/>
</g>
</svg>
