<?xml version="1.0" encoding="utf-8"?>
<!-- Generator: Adobe Illustrator 19.2.0, SVG Export Plug-In . SVG Version: 6.00 Build 0)  -->
<svg version="1.1" id="Capa_1" xmlns="http://www.w3.org/2000/svg" xmlns:xlink="http://www.w3.org/1999/xlink" x="0px" y="0px"
	 viewBox="0 0 512 388.876" enable-background="new 0 0 512 388.876" xml:space="preserve">
<path fill="#4D4B4B" d="M451.231,0H60.77C27.262,0,0,26.18,0,58.36v272.157c0,32.179,27.262,58.359,60.77,58.359h390.461
	c33.508,0,60.769-26.18,60.769-58.359V58.36C512,26.18,484.74,0,451.231,0z M451.231,337.354H60.77
	c-4.925,0-9.245-3.194-9.245-6.838V94.348L228.12,243.439c3.62,3.058,8.224,4.741,12.965,4.741l29.825,0.001
	c4.738,0,9.344-1.684,12.966-4.742L460.479,94.343v236.177C460.477,334.16,456.155,337.354,451.231,337.354z M256.001,197.022
	L84.24,51.522h343.522L256.001,197.022z"/>
</svg>
