<?xml version="1.0" encoding="utf-8"?>
<!-- Generator: Adobe Illustrator 19.2.0, SVG Export Plug-In . SVG Version: 6.00 Build 0)  -->
<svg version="1.1" id="Слой_1" xmlns="http://www.w3.org/2000/svg" xmlns:xlink="http://www.w3.org/1999/xlink" x="0px" y="0px"
	 viewBox="0 0 217.492 332.824" enable-background="new 0 0 217.492 332.824" xml:space="preserve">
<g>
	<path d="M119.617,0H94.086C41.328,0,0,42.996,0,97.887V234.93c0,54.894,41.328,97.894,94.086,97.894h25.531
		c53.969,0,97.875-43.914,97.875-97.894V97.887C217.492,43.91,173.586,0,119.617,0L119.617,0z M107.758,51.297h1.976
		c3.086,0,5.598,2.512,5.598,5.598v39.867c0,3.09-2.512,5.601-5.598,5.601h-1.976c-3.086,0-5.598-2.511-5.598-5.601V56.895
		C102.16,53.809,104.672,51.297,107.758,51.297L107.758,51.297z M204.691,234.93c0,46.922-38.164,85.094-85.074,85.094H94.086
		c-45.582,0-81.285-37.379-81.285-85.094V97.887c0-47.711,35.703-85.086,81.285-85.086h8.18v26.531
		c-7.469,2.344-12.907,9.332-12.907,17.567v39.863c0,8.234,5.438,15.223,12.907,17.562v32.934c0,3.535,2.867,6.402,6.402,6.402
		c3.535,0,6.398-2.867,6.398-6.402v-32.887c7.555-2.293,13.067-9.316,13.067-17.609V56.895c0-8.289-5.512-15.317-13.067-17.61
		V12.801h4.551c46.91,0,85.074,38.168,85.074,85.086V234.93z M204.691,234.93"/>
</g>
</svg>
