<?xml version="1.0" encoding="utf-8"?>
<!-- Generator: Adobe Illustrator 19.2.0, SVG Export Plug-In . SVG Version: 6.00 Build 0)  -->
<svg version="1.1" id="Capa_1" xmlns="http://www.w3.org/2000/svg" xmlns:xlink="http://www.w3.org/1999/xlink" x="0px" y="0px"
	 viewBox="0 0 512 411.829" enable-background="new 0 0 512 411.829" xml:space="preserve">
<path fill="#4D4B4B" d="M510.601,147.774l-47.138-88.812c-1.6-3.013-4.324-5.086-7.412-5.936c-0.021-0.005-0.033-0.013-0.055-0.019
	L259.618,0c-2.042-0.55-4.193-0.553-6.236-0.004L56.019,53.003c-0.022,0.006-0.036,0.014-0.059,0.02
	c-3.093,0.849-5.822,2.924-7.422,5.94L1.399,147.774c-1.536,2.895-1.821,6.292-0.788,9.402c1.032,3.11,3.293,5.662,6.256,7.062
	l41.013,19.387v121.32c0,4.603,2.634,8.8,6.78,10.799l196.622,94.894c1.652,0.798,3.434,1.192,5.211,1.192
	c1.763,0,3.516-0.406,5.138-1.175c0.026-0.006,0.051-0.005,0.075-0.018l196.622-94.894c4.146-2,6.78-6.196,6.78-10.799V183.635
	c0-0.156-0.018-0.31-0.023-0.464l40.051-18.933c2.963-1.4,5.223-3.952,6.256-7.062C512.421,154.065,512.137,150.67,510.601,147.774z
	 M256.485,23.996l157.028,42.385L256,124.758L98.563,66.411L256.485,23.996z M64.802,79.476l175.073,64.884l-38.559,85.268
	L28.474,147.923L64.802,79.476z M71.864,297.417V194.963l130.228,61.56c1.618,0.765,3.37,1.151,5.125,1.151
	c1.398,0,2.8-0.244,4.138-0.736c3.019-1.109,5.464-3.385,6.789-6.315l26.357-58.287v188.4L71.864,297.417z M441.122,297.417
	l-172.638,83.319v-186.22l25.372,56.106c1.325,2.93,3.771,5.204,6.789,6.315c1.338,0.492,2.739,0.736,4.138,0.736
	c1.756,0,3.507-0.385,5.125-1.151l131.214-62.026L441.122,297.417L441.122,297.417z M310.684,229.627l-38.56-85.268l175.073-64.884
	l36.329,68.447L310.684,229.627z"/>
</svg>
