<?xml version="1.0" encoding="utf-8"?>
<!-- Generator: Adobe Illustrator 19.2.0, SVG Export Plug-In . SVG Version: 6.00 Build 0)  -->
<svg version="1.1" id="Capa_1" xmlns="http://www.w3.org/2000/svg" xmlns:xlink="http://www.w3.org/1999/xlink" x="0px" y="0px"
	 viewBox="0 0 237.725 512" enable-background="new 0 0 237.725 512" xml:space="preserve">
<g>
	<path fill="#4D4B4B" d="M204.693,118.235h-20.49V10.89c0-6.014-4.876-10.89-10.89-10.89h-108.9c-6.014,0-10.89,4.876-10.89,10.89
		v107.345h-20.49C14.82,118.235,0,133.052,0,151.267v327.701C0,497.181,14.819,512,33.033,512h171.66
		c18.213,0,33.032-14.818,33.032-33.032v-327.7C237.725,133.053,222.908,118.235,204.693,118.235z M172.769,182.511v73.005H64.959
		v-73.005H172.769z M162.423,21.78v138.525l-87.12-0.001V21.78H162.423z M215.945,478.968c0,6.204-5.048,11.252-11.252,11.252
		H33.033c-6.204,0-11.253-5.048-11.253-11.252V151.267c0-6.204,5.048-11.252,11.253-11.252h20.49v20.317
		c-2.689,0.135-5.243,1.25-7.155,3.162c-2.042,2.042-3.189,4.812-3.189,7.701v95.21c0,6.014,4.876,10.89,10.89,10.89h129.59
		c6.014,0,10.89-4.876,10.89-10.89v-95.21c0-5.831-4.586-10.577-10.346-10.863v-20.317h20.49c6.204,0,11.252,5.048,11.252,11.253
		V478.968z"/>
	<path fill="#4D4B4B" d="M102.598,310.869H53.8c-6.014,0-10.89,4.876-10.89,10.89c0,6.014,4.876,10.89,10.89,10.89h48.798
		c6.014,0,10.89-4.876,10.89-10.89C113.488,315.745,108.612,310.869,102.598,310.869z"/>
	<path fill="#4D4B4B" d="M183.927,310.869H135.13c-6.014,0-10.89,4.876-10.89,10.89c0,6.014,4.876,10.89,10.89,10.89h48.797
		c6.014,0,10.89-4.876,10.89-10.89C194.817,315.745,189.94,310.869,183.927,310.869z"/>
	<path fill="#4D4B4B" d="M102.598,367.332H53.8c-6.014,0-10.89,4.876-10.89,10.89c0,6.014,4.876,10.89,10.89,10.89h48.798
		c6.014,0,10.89-4.876,10.89-10.89C113.488,372.207,108.612,367.332,102.598,367.332z"/>
	<path fill="#4D4B4B" d="M183.927,367.332H135.13c-6.014,0-10.89,4.876-10.89,10.89c0,6.014,4.876,10.89,10.89,10.89h48.797
		c6.014,0,10.89-4.876,10.89-10.89C194.817,372.207,189.94,367.332,183.927,367.332z"/>
	<path fill="#4D4B4B" d="M102.598,424.901H53.8c-6.014,0-10.89,4.876-10.89,10.89c0,6.014,4.876,10.89,10.89,10.89h48.798
		c6.014,0,10.89-4.876,10.89-10.89C113.488,429.777,108.612,424.901,102.598,424.901z"/>
	<path fill="#4D4B4B" d="M183.927,424.901H135.13c-6.014,0-10.89,4.876-10.89,10.89c0,6.014,4.876,10.89,10.89,10.89h48.797
		c6.014,0,10.89-4.876,10.89-10.89C194.817,429.777,189.94,424.901,183.927,424.901z"/>
</g>
</svg>
