<?xml version="1.0" encoding="utf-8"?>
<!-- Generator: Adobe Illustrator 19.2.0, SVG Export Plug-In . SVG Version: 6.00 Build 0)  -->
<svg version="1.1" id="Capa_1" xmlns="http://www.w3.org/2000/svg" xmlns:xlink="http://www.w3.org/1999/xlink" x="0px" y="0px"
	 viewBox="0 0 437.797 512" enable-background="new 0 0 437.797 512" xml:space="preserve">
<g>
	<path fill="#4D4B4B" d="M437.797,218.898C437.797,98.197,339.599,0,218.898,0S0,98.197,0,218.898
		c0,71.164,34.369,137.444,92.241,178.544c1.058,11.343,5.666,22.024,13.376,30.705l48.508,54.61
		c0.489,0.551,0.995,1.081,1.519,1.596c13.02,12.752,37.303,27.645,62.889,27.645h47.759c20.583,0,40.096-7.322,54.947-20.613
		c15.608-13.971,24.56-33.61,24.56-53.882l-0.018-40.23C403.495,356.166,437.797,289.904,437.797,218.898z M266.289,480.276h-47.758
		c-14.304,0-30.941-9.036-40.688-18.585l-48.507-54.608c-8.153-9.18-7.323-23.234,1.859-31.387
		c4.236-3.762,9.506-5.613,14.758-5.613c6.133,0,12.238,2.524,16.63,7.469l7.87,8.859V286.088c0-12.279,9.954-22.234,22.234-22.234
		c12.28,0,22.234,9.956,22.234,22.234v52.008c3.318-1.969,7.179-3.12,11.318-3.12c9.436,0,17.48,5.889,20.707,14.185
		c3.455-2.216,7.554-3.515,11.961-3.515c10.864,0,19.894,7.795,21.835,18.092c3.263-1.879,7.036-2.971,11.073-2.971
		c12.279,0,22.234,9.955,22.234,22.234l0.022,54.504C314.072,461.127,292.68,480.276,266.289,480.276z M340.981,360.77
		c-7.863-17.323-24.624-29.788-44.417-31.521c-9.802-9.548-23.161-15.328-37.657-15.328c-0.156,0-0.312,0-0.47,0.001
		c-0.448-0.334-0.901-0.661-1.359-0.98c-3.289-2.296-6.785-4.2-10.435-5.693v-21.161c0-29.752-24.206-53.958-53.958-53.958
		s-53.958,24.206-53.958,53.958v52.754c-10.574,1.428-20.532,5.964-28.6,13.131c-3.891,3.457-7.203,7.391-9.898,11.676
		c-43.193-35.416-68.506-88.286-68.506-144.751c0-103.208,83.966-187.174,187.174-187.174s187.174,83.966,187.174,187.174
		C406.072,273.807,382.077,325.397,340.981,360.77z"/>
</g>
</svg>
