<?xml version="1.0" encoding="utf-8"?>
<!-- Generator: Adobe Illustrator 19.2.0, SVG Export Plug-In . SVG Version: 6.00 Build 0)  -->
<svg version="1.1" id="Capa_1" xmlns="http://www.w3.org/2000/svg" xmlns:xlink="http://www.w3.org/1999/xlink" x="0px" y="0px"
	 viewBox="0 0 512 254.581" enable-background="new 0 0 512 254.581" xml:space="preserve">
<path fill="#4D4B4B" d="M505.92,159.892l-8.006-13.343c-1.641-2.733-4.407-4.602-7.555-5.102l-93.143-14.817L220.821,32.552
	c-2.307-1.23-4.931-1.544-7.398-1L195.595,4.805c-2.99-4.488-8.837-6.076-13.689-3.721c-1.053,0.511-10.48,5.336-17.43,17.236
	c-9.285,15.896-8.371,34.183-4.988,48.768c-13.769,8.137-29.852,11.326-45.782,8.967c-17.409-2.579-33.085-11.539-44.143-25.23
	l-21.26-26.32c-2.381-2.949-6.133-4.436-9.891-3.905c-3.753,0.526-6.956,2.985-8.433,6.476l-13.285,31.37
	C-0.385,98.77-2.971,143.906,9.33,185.879l-9.04,38.169c-0.739,3.115-0.054,6.398,1.866,8.959
	c2.702,3.603,19.25,21.575,79.826,21.575h297.289c41.576,0,82.725-13.826,115.865-38.932
	C512.475,202.513,517.11,178.544,505.92,159.892z M216.421,54.656l1.424,0.759l-8.889,9.482c-4.074,4.346-3.854,11.172,0.491,15.248
	c2.082,1.951,4.732,2.918,7.376,2.918c2.878,0,5.749-1.145,7.871-3.41L237.56,65.93l11.479,6.122l-8.62,9.195
	c-4.074,4.346-3.853,11.173,0.493,15.248c2.082,1.951,4.731,2.918,7.375,2.918c2.878,0,5.749-1.145,7.873-3.41l12.595-13.436
	l10.488,5.594l-9.699,10.346c-4.074,4.346-3.853,11.173,0.493,15.248c2.082,1.951,4.731,2.918,7.375,2.918
	c2.878,0,5.749-1.145,7.873-3.41l13.674-14.585l13.231,7.056l-9.204,9.819c-4.074,4.346-3.853,11.173,0.493,15.248
	c2.082,1.951,4.731,2.918,7.375,2.918c2.878,0,5.749-1.145,7.873-3.41l13.179-14.058l7.755,4.136l-25.949,24.557l-99.436-52.02
	c-2.544-1.33-5.512-1.592-8.249-0.728l-14.447,4.562l-15.508-14.66L216.421,54.656z M359.733,131.09l23.409,12.485l0.633,20.91
	l-22.313,6.248c-17.827,4.991-32.863,16.5-42.339,32.406l-1.388,2.33c-11.24-0.627-22.462-1.561-33.649-2.792L359.733,131.09z
	 M367.281,191.507l30.148-8.441l85.97-18.775l4.02,6.701c3.91,6.518,3.878,14.345,0.491,20.658
	c-47.316,10.532-95.965,15.448-144.528,14.729C349.716,199.285,357.952,194.12,367.281,191.507z M404.912,149.699l25.565,4.067
	l-25.274,5.52L404.912,149.699z M184.431,26.953l10.717,16.078l-16.129,10.967C177.434,40.562,180.778,32.055,184.431,26.953z
	 M155.832,92.652l25.536,24.139c2.846,2.69,6.922,3.628,10.659,2.448l16.22-5.122l88.894,46.505l-40.585,38.407
	c-14.429-2.244-28.771-4.999-42.989-8.261l-92.375-69.601c-8.471-6.383-14.669-15.255-17.914-25.166
	c2.395,0.554,4.815,1.033,7.267,1.397C125.967,99.681,141.498,97.99,155.832,92.652z M28.77,175.258
	c-5.174-19.69-6.688-40.076-4.612-60.129c20.687-1.972,39.555-13.474,50.777-30.965c1.477,0.937,2.989,1.817,4.517,2.667
	c1.913,20.294,12.356,39.209,28.757,51.565l60.776,45.792L28.77,175.258z M36.561,66.859L42.83,52.06l9.951,12.321
	c1.681,2.081,3.452,4.07,5.29,5.98C51.63,81.759,40.588,89.835,28.022,92.709C30.157,83.918,32.998,75.27,36.561,66.859z
	 M81.983,233.005c-35.689,0-52.423-6.75-59.12-10.657l6.03-25.462l140.734,8.963c12.374,0.789,24.771,2.617,36.846,5.435
	c47.822,11.158,97.028,16.739,146.236,16.739c28.678,0,57.354-1.911,85.758-5.702c-18.882,6.994-38.981,10.686-59.197,10.686H81.983
	V233.005z"/>
</svg>
