<?xml version="1.0" encoding="utf-8"?>
<!-- Generator: Adobe Illustrator 19.2.0, SVG Export Plug-In . SVG Version: 6.00 Build 0)  -->
<svg version="1.1" id="Layer_1" xmlns="http://www.w3.org/2000/svg" xmlns:xlink="http://www.w3.org/1999/xlink" x="0px" y="0px"
	 viewBox="0 0 231.2 47.4" enable-background="new 0 0 231.2 47.4" xml:space="preserve">
<path fill="#4D4B4B" d="M10.3,40.6c1.3,0,2.5-0.2,3.6-0.5s2-0.8,2.8-1.4c0.8-0.6,1.4-1.4,1.8-2.3c0.4-0.9,0.6-2,0.6-3.2
	c0-1.1-0.2-2-0.5-2.7c-0.3-0.8-0.8-1.4-1.5-2s-1.4-1-2.4-1.4c-0.9-0.4-2-0.8-3.2-1.1c-1-0.3-1.9-0.5-2.6-0.7s-1.2-0.4-1.6-0.7
	C7,24.3,6.7,24,6.5,23.7s-0.2-0.6-0.2-1s0.1-0.8,0.3-1.1c0.2-0.3,0.6-0.6,1-0.8c0.5-0.2,1-0.3,1.7-0.3c1,0,2,0.2,3.1,0.6
	c1,0.4,2.1,1,3.2,1.7l2.7-4c-1.2-1-2.6-1.7-4.1-2.3c-1.5-0.5-3.1-0.8-4.9-0.8c-1.2,0-2.4,0.2-3.4,0.5c-1,0.3-1.9,0.8-2.7,1.5
	c-0.7,0.6-1.3,1.4-1.7,2.3s-0.6,1.9-0.6,3c0,1.2,0.2,2.2,0.6,3s0.9,1.5,1.6,2s1.5,1,2.5,1.4s2.1,0.7,3.3,1c1,0.3,1.8,0.5,2.4,0.7
	s1.1,0.5,1.5,0.7c0.3,0.2,0.6,0.5,0.7,0.7c0.1,0.3,0.2,0.6,0.2,0.9c0,0.7-0.3,1.3-0.9,1.7c-0.6,0.4-1.5,0.6-2.5,0.6
	c-0.9,0-1.8-0.1-2.6-0.4c-0.8-0.2-1.6-0.6-2.4-1s-1.5-0.9-2.2-1.5L0,36.5c1,0.9,2,1.6,3.1,2.1c1.1,0.6,2.3,1,3.5,1.3
	C7.9,40.5,9.1,40.6,10.3,40.6L10.3,40.6z"/>
<polygon fill="#4D4B4B" points="23.7,40.3 29,40.3 29,30.6 38.7,30.6 38.7,40.3 44,40.3 44,16.3 38.7,16.3 38.7,25.8 29,25.8 
	29,16.3 23.7,16.3 "/>
<path fill="#4D4B4B" d="M61.4,40.7c1.5,0,2.9-0.2,4.2-0.6c1.3-0.4,2.5-1,3.5-1.8c1.1-0.8,2-1.7,2.7-2.7c0.8-1,1.3-2.2,1.7-3.4
	c0.4-1.2,0.6-2.5,0.6-3.9s-0.2-2.7-0.6-3.9c-0.4-1.2-1-2.4-1.7-3.4c-0.8-1-1.7-1.9-2.7-2.7c-1.1-0.8-2.2-1.3-3.5-1.8
	c-1.3-0.4-2.7-0.6-4.2-0.6s-2.9,0.2-4.2,0.6s-2.5,1-3.5,1.8c-1.1,0.8-2,1.7-2.7,2.7c-0.8,1-1.3,2.2-1.8,3.4
	c-0.4,1.2-0.6,2.5-0.6,3.9s0.2,2.7,0.6,3.9c0.4,1.2,1,2.4,1.7,3.4c0.8,1,1.7,1.9,2.7,2.7s2.2,1.3,3.5,1.8
	C58.5,40.4,59.9,40.7,61.4,40.7L61.4,40.7z M61.5,35.8c-1.1,0-2-0.2-2.9-0.6c-0.9-0.4-1.7-0.9-2.3-1.6c-0.6-0.7-1.1-1.5-1.5-2.4
	s-0.5-1.9-0.5-2.9c0-1.1,0.2-2,0.5-2.9s0.8-1.7,1.5-2.4c0.6-0.7,1.4-1.2,2.3-1.6c0.9-0.4,1.9-0.6,2.9-0.6c1.1,0,2,0.2,2.9,0.6
	s1.7,0.9,2.3,1.6c0.6,0.7,1.1,1.5,1.5,2.4s0.5,1.9,0.5,2.9c0,1.1-0.2,2-0.5,2.9s-0.8,1.7-1.5,2.4c-0.6,0.7-1.4,1.2-2.3,1.6
	S62.5,35.8,61.5,35.8L61.5,35.8z"/>
<path fill="#4D4B4B" d="M78.9,40.3h5.3v-7.2h4c1.4,0,2.6-0.2,3.8-0.5c1.2-0.4,2.2-0.9,3.1-1.6s1.6-1.6,2.1-2.6
	c0.5-1.1,0.8-2.3,0.8-3.7c0-1.2-0.2-2.4-0.6-3.4s-1-1.9-1.8-2.6s-1.8-1.3-2.9-1.7c-1.1-0.4-2.4-0.6-3.9-0.6H79v23.9H78.9z
	 M84.2,28.4V21h4.1c0.9,0,1.6,0.1,2.3,0.4c0.6,0.3,1.1,0.7,1.5,1.2c0.3,0.5,0.5,1.2,0.5,2c0,0.7-0.2,1.3-0.5,1.9s-0.8,1-1.4,1.3
	s-1.4,0.5-2.3,0.5h-4.2V28.4z"/>
<path fill="#4D4B4B" d="M138,40.3h5.3v-7.2h4c1.4,0,2.6-0.2,3.8-0.5c1.2-0.4,2.2-0.9,3.1-1.6c0.9-0.7,1.6-1.6,2.1-2.6
	c0.5-1.1,0.8-2.3,0.8-3.7c0-1.2-0.2-2.4-0.6-3.4c-0.4-1-1-1.9-1.8-2.6s-1.8-1.3-2.9-1.7c-1.1-0.4-2.4-0.6-3.8-0.6h-10V40.3L138,40.3
	z M143.3,28.4V21h4.1c0.9,0,1.6,0.1,2.3,0.4c0.6,0.3,1.1,0.7,1.5,1.2c0.3,0.5,0.5,1.2,0.5,2c0,0.7-0.2,1.3-0.5,1.9s-0.8,1-1.4,1.3
	c-0.6,0.3-1.4,0.5-2.3,0.5h-4.2V28.4z"/>
<path fill="#4D4B4B" d="M156.5,40.3h5.4l2.2-5.4h10.1l2.2,5.4h5.5l-10.3-24.2h-4.9L156.5,40.3L156.5,40.3z M165.9,30.2l3.2-7.8
	l3.2,7.8H165.9L165.9,30.2z"/>
<path fill="#4D4B4B" d="M195.3,40.7c1.2,0,2.2-0.1,3.1-0.3c0.9-0.2,1.8-0.4,2.6-0.8c0.8-0.3,1.5-0.8,2.2-1.3s1.3-1.1,1.9-1.7
	l-3.4-3.6c-0.6,0.6-1.2,1.1-1.9,1.5c-0.6,0.4-1.3,0.7-2,1c-0.7,0.2-1.5,0.3-2.4,0.3c-1,0-2-0.2-2.8-0.6c-0.9-0.4-1.6-0.9-2.2-1.6
	c-0.6-0.7-1.1-1.5-1.4-2.4c-0.3-0.9-0.5-1.9-0.5-2.9c0-1.1,0.2-2,0.5-2.9s0.8-1.7,1.4-2.4c0.6-0.7,1.4-1.2,2.2-1.6s1.8-0.6,2.8-0.6
	c0.9,0,1.7,0.1,2.4,0.3c0.7,0.2,1.4,0.5,2,0.9s1.2,0.9,1.8,1.4l3.2-3.6c-0.6-0.6-1.1-1.1-1.8-1.5c-0.6-0.5-1.3-0.9-2-1.2
	c-0.7-0.4-1.6-0.6-2.5-0.8c-0.9-0.2-1.9-0.3-3-0.3c-1.5,0-2.9,0.2-4.1,0.6c-1.3,0.4-2.4,1-3.5,1.8c-1,0.8-1.9,1.7-2.6,2.7
	c-0.7,1-1.3,2.2-1.7,3.4c-0.4,1.2-0.6,2.5-0.6,3.9s0.2,2.7,0.6,4c0.4,1.2,1,2.4,1.7,3.4s1.6,1.9,2.6,2.7s2.1,1.3,3.4,1.7
	C192.6,40.5,193.9,40.7,195.3,40.7L195.3,40.7z"/>
<polygon fill="#4D4B4B" points="209.4,40.3 214.7,40.3 214.7,32.9 217.4,30 224.9,40.3 231.2,40.3 221,26.4 230.8,16.3 224.4,16.3 
	214.7,26.7 214.7,16.3 209.4,16.3 "/>
<path fill="#4D4B4B" d="M107.6,7V4.6c0-1.3,1-2.3,2.3-2.3H125c1.3,0,2.3,1,2.3,2.3V7h2.3V4.6c0-2.6-2.1-4.6-4.6-4.6h-15
	c-2.6,0-4.6,2.1-4.6,4.6V7H107.6L107.6,7z"/>
<polygon fill="#F0C530" points="0,43 97.7,43 97.7,45.4 0,45.4 "/>
<polygon fill="#F0C530" points="100.3,9.2 133.9,9.2 131.5,28.3 133.9,47.4 100.3,47.4 102.6,28.3 "/>
<path fill="#4D4B4B" d="M127.3,43.1l2.5-1.9l-5-5.1c0.8-1,1.5-2.2,2.2-3.4s1.3-2.5,2-3.9l-2.7-1.2c-0.5,1.2-1.1,2.3-1.6,3.4
	c-0.6,1.1-1.2,2.1-1.8,3l-6.6-6.7l-1.8-1.8c-0.7-0.8-1.3-1.5-1.7-2c-0.4-0.6-0.7-1.1-0.9-1.7c-0.2-0.5-0.3-1-0.3-1.6
	c0-0.8,0.2-1.5,0.6-2.2c0.4-0.6,0.9-1.1,1.5-1.5s1.4-0.5,2.3-0.6c0.8,0,1.5,0.2,2.1,0.5c0.9,0.5,2,1.7,2.4,2.8l2.1-2
	c-0.3-0.8-0.8-1.5-1.4-2.1s-1.4-1.1-2.2-1.4c-0.8-0.3-1.8-0.5-2.8-0.5c-1.1,0-2.2,0.2-3.1,0.5s-1.7,0.8-2.4,1.5
	c-0.7,0.6-1.2,1.3-1.5,2.2c-0.4,0.8-0.5,1.7-0.5,2.7c0,0.8,0.1,1.5,0.3,2.2c0.2,0.7,0.5,1.4,0.9,2.1s1,1.4,1.6,2.2
	c-1.5,0.6-2.7,1.3-3.7,2.1c-1,0.8-1.8,1.7-2.4,2.8c-0.5,1-0.8,2.2-0.8,3.5c0,1.2,0.2,2.3,0.7,3.3s1.1,1.8,1.9,2.6
	c0.8,0.7,1.8,1.3,2.9,1.6c1.1,0.4,2.3,0.6,3.6,0.6c1.9,0,3.6-0.4,5.1-1.2s3-1.9,4.3-3.3L127.3,43.1L127.3,43.1z M113.6,40.2
	c-1.2,0-2.2-0.3-3.1-0.7c-0.9-0.5-1.6-1.1-2.1-1.9c-0.5-0.8-0.8-1.7-0.8-2.8c0-0.8,0.2-1.6,0.6-2.4c0.4-0.8,1-1.5,1.8-2.1
	s1.8-1.2,3.1-1.7l7.7,7.9c-0.7,0.8-1.4,1.4-2.2,2c-0.8,0.6-1.6,1-2.4,1.3C115.4,40.1,114.5,40.2,113.6,40.2L113.6,40.2z"/>
<polygon fill="#F2CA30" points="138,43 231.1,43 231.1,45.4 138,45.4 "/>
</svg>
