<?xml version="1.0" encoding="utf-8"?>
<!-- Generator: Adobe Illustrator 19.2.0, SVG Export Plug-In . SVG Version: 6.00 Build 0)  -->
<svg version="1.1" id="Capa_1" xmlns="http://www.w3.org/2000/svg" xmlns:xlink="http://www.w3.org/1999/xlink" x="0px" y="0px"
	 viewBox="0 0 512 447.032" enable-background="new 0 0 512 447.032" xml:space="preserve">
<g>
	<g>
		<path fill="#4D4B4B" d="M363.756,243.446h-69.571c-19.04,0-34.524,15.483-34.524,34.524v53.355
			c0,19.04,15.483,34.524,34.524,34.524h69.571c19.04,0,34.524-15.483,34.524-34.524V277.97
			C398.28,258.929,382.797,243.446,363.756,243.446z M373.172,331.325c0,5.231-4.289,9.416-9.416,9.416h-69.571
			c-5.231,0-9.416-4.289-9.416-9.416V277.97c0-5.231,4.289-9.416,9.416-9.416h69.571c5.231,0,9.416,4.289,9.416,9.416V331.325z"/>
		<path fill="#4D4B4B" d="M512,146.465c0-2.197-0.523-4.289-1.674-6.172L434.164,6.382C431.967,2.511,427.783,0,423.284,0H88.611
			c-4.499,0-8.683,2.406-10.88,6.382L1.674,140.293C0.628,142.176,0,144.268,0,146.465c0,30.025,18.099,55.761,43.94,67.165v220.848
			c0,6.905,5.649,12.554,12.554,12.554h69.362c0.105,0,0.209,0,0.314,0h97.295c0.105,0,0.209,0,0.314,0h231.624
			c6.905,0,12.554-5.649,12.554-12.554V215.199c0-0.523,0-0.942-0.105-1.36C493.797,202.436,512,176.595,512,146.465z
			 M95.935,25.213h320.026l59.528,104.723H36.512L95.935,25.213z M364.384,154.939c-3.975,22.597-23.748,39.755-47.497,39.755
			c-23.748,0-43.521-17.157-47.497-39.755H364.384z M242.714,154.939c-3.975,22.597-23.748,39.755-47.497,39.755
			s-43.521-17.157-47.601-39.755H242.714z M25.945,154.939h95.098c-3.975,22.597-23.853,39.755-47.601,39.755
			C49.694,194.799,29.921,177.537,25.945,154.939z M210.91,421.924h-72.186v-135.48c0-9.834,7.951-17.89,17.89-17.89h36.512
			c9.834,0,17.89,7.951,17.89,17.89v135.48H210.91z M442.848,421.924h-206.83v-135.48c0-23.644-19.25-42.998-42.998-42.998h-36.512
			c-23.644,0-42.998,19.25-42.998,42.998v135.585H69.048V219.802c1.465,0.105,2.929,0.105,4.394,0.105
			c25.318,0,47.706-12.868,60.888-32.432c13.182,19.564,35.57,32.432,60.888,32.432s47.601-12.868,60.888-32.432
			c13.182,19.564,35.57,32.432,60.783,32.432c25.318,0,47.601-12.868,60.783-32.432c13.182,19.564,35.57,32.432,60.888,32.432
			c1.465,0,2.825-0.105,4.289-0.105L442.848,421.924L442.848,421.924z M438.558,194.799c-23.748,0-43.521-17.157-47.497-39.755
			h95.098C482.079,177.537,462.307,194.799,438.558,194.799z"/>
	</g>
</g>
</svg>
