<?xml version="1.0" encoding="utf-8"?>
<!-- Generator: Adobe Illustrator 19.2.0, SVG Export Plug-In . SVG Version: 6.00 Build 0)  -->
<svg version="1.1" id="Capa_1" xmlns="http://www.w3.org/2000/svg" xmlns:xlink="http://www.w3.org/1999/xlink" x="0px" y="0px"
	 viewBox="0 0 512 512" enable-background="new 0 0 512 512" xml:space="preserve">
<g>
	<g id="Cart">
		<g>
			<path fill="#4D4B4B" d="M511.52,12.341c-2.126-8.553-10.823-13.796-19.391-11.638l-64.008,15.986
				c-6.235,1.567-10.934,6.682-11.926,12.997l-8.105,51.283L14.036,128.24c-0.304,0.032-0.544,0.256-0.879,0.32
				c-0.368,0.064-0.703-0.048-1.087,0.048c-0.911,0.224-1.599,0.783-2.398,1.135c-0.911,0.384-1.758,0.687-2.558,1.215
				c-1.119,0.767-2.03,1.758-2.909,2.766c-0.464,0.496-1.039,0.783-1.439,1.327c-0.096,0.128-0.096,0.288-0.16,0.416
				c-0.863,1.343-1.359,2.846-1.806,4.38c-0.16,0.56-0.48,1.039-0.575,1.615c-0.32,2.11-0.32,4.332,0.224,6.538L48.47,339.831
				l15.986,63.944c0.128,0.464,0.4,0.831,0.56,1.263c0.256,0.767,0.591,1.471,0.975,2.19c0.528,1.039,1.183,1.998,1.95,2.909
				c0.464,0.544,0.959,1.087,1.487,1.615c0.975,0.847,1.998,1.503,3.101,2.094c0.575,0.336,1.087,0.687,1.711,0.943
				c1.79,0.671,3.709,1.087,5.707,1.087h336.058c8.84,0,15.986-7.146,15.986-15.97c0-8.84-7.146-16.002-15.986-16.002H92.447
				l-7.993-31.972h299.562c1.966,0,3.869-0.336,5.627-1.007c0.719-0.288,1.279-0.751,1.934-1.103
				c0.991-0.528,2.014-0.991,2.862-1.711c0.623-0.528,1.039-1.247,1.631-1.902c0.671-0.815,1.423-1.519,1.95-2.398
				c0.432-0.847,0.623-1.806,0.943-2.75c0.336-0.847,0.751-1.647,0.943-2.526l0.064-0.336v-0.176l46.2-292.88l53.713-13.412
				C508.483,29.59,513.679,20.91,511.52,12.341z M76.461,319.944L35.873,157.83l49.621-5.947l24.059,168.061H76.461z
				 M141.844,319.944l-24.571-171.866l49.86-5.979l8.073,177.844H141.844z M240.685,319.944h-33.395l-8.281-181.681l49.812-5.963
				L240.685,319.944z M305.86,319.944h-33.139l8.313-191.512l49.589-5.931L305.86,319.944z M370.012,319.944h-31.876l25.194-201.392
				l34.098-4.076L370.012,319.944z M143.954,447.832c-17.649,0-32.004,14.323-32.004,31.988c0,17.665,14.339,31.956,32.004,31.956
				c17.681,0,32.004-14.307,32.004-31.956C175.958,462.188,161.635,447.832,143.954,447.832z M352.028,447.832
				c-17.665,0-32.004,14.323-32.004,31.988c0,17.665,14.323,31.956,32.004,31.956c17.649,0,32.004-14.307,32.004-31.956
				C384,462.172,369.677,447.832,352.028,447.832z"/>
		</g>
	</g>
</g>
</svg>
