<svg  x="0px" y="0px"
	 viewBox="0 0 512 512" enable-background="new 0 0 512 512" xml:space="preserve">
<g>
	<g>
		<path fill="#4D4B4B" d="M490.67,255.994c0-31.772-6.169-62.162-18.5-91.162c-12.331-29-29-53.996-49.998-75.001
			c-21-21.004-46.001-37.667-75.001-49.998s-59.389-18.5-91.167-18.5c-16.225,0-32.892,1.786-49.998,5.34
			C182.888,8.902,156.888,0.009,128.005,0.009c-35.333,0-65.5,12.501-90.502,37.497S0,92.664,0,128.002
			c0,28.895,8.882,54.894,26.665,77.995c-3.56,17.123-5.335,33.792-5.335,49.998c0,31.783,6.169,62.172,18.501,91.172
			c12.331,29,29,53.996,49.998,75.001c20.999,21.004,46.001,37.666,75.001,49.998c29,12.332,59.389,18.5,91.166,18.5
			c16.219,0,32.887-1.786,49.998-5.34c23.112,17.771,49.112,26.665,78.002,26.665c35.333,0,65.499-12.501,90.501-37.497
			C499.501,449.492,512,419.325,512,383.999c0-28.895-8.888-54.884-26.664-78.006C488.89,288.898,490.67,272.231,490.67,255.994z
			 M380.003,355.501c-7.334,12.997-17.169,23.397-29.501,31.171c-12.332,7.774-25.947,13.727-40.836,17.824
			c-14.893,4.114-30.447,6.175-46.666,6.175c-37.556,0-69.893-7.278-97.002-21.839c-27.114-14.555-40.666-32.058-40.666-52.503
			c0-9.997,2.83-18.331,8.503-25.002c5.666-6.665,14.048-9.997,25.165-9.997c6.444,0,12.443,1.786,17.999,5.34
			c5.55,3.555,10.669,7.826,15.332,12.828c4.669,5.001,9.716,10.003,15.168,15c5.445,5.001,12.664,9.284,21.67,12.84
			c8.999,3.554,19.166,5.328,30.5,5.328c14.439,0,26.111-2.825,34.999-8.491c8.882-5.679,13.335-12.84,13.335-21.513
			c0-8.882-3.559-15.548-10.669-20c-4.891-3.099-17.333-7.097-37.332-11.994l-48.668-12.005
			c-13.335-3.098-24.781-6.717-34.334-10.831c-9.559-4.103-18.448-9.49-26.665-16.16c-8.223-6.665-14.445-15.052-18.664-25.172
			c-4.226-10.103-6.332-21.938-6.332-35.507c0-16.213,3.717-30.494,11.165-42.825c7.441-12.332,17.333-22.009,29.665-29
			c12.332-7.003,25.609-12.227,39.832-15.676c14.217-3.437,28.883-5.159,43.999-5.159c21.332,0,41.553,2.55,60.667,7.657
			c19.108,5.118,34.889,12.617,47.331,22.499c12.444,9.898,18.664,20.952,18.664,33.178c0,9.998-3.168,18.554-9.501,25.662
			s-14.725,10.662-25.167,10.662c-5.778,0-11.112-1.33-15.995-3.998c-4.891-2.667-9.333-5.883-13.335-9.676
			c-3.999-3.764-8.223-7.499-12.665-11.159c-4.448-3.67-10.447-6.835-17.998-9.507c-7.558-2.667-16.114-3.998-25.669-3.998
			c-32,0-47.997,8.567-47.997,25.662c0,3.788,0.834,7.12,2.498,9.997c1.669,2.907,3.502,5.235,5.498,7.003
			c2.002,1.786,5.335,3.554,9.997,5.328c4.669,1.786,8.55,3.075,11.667,3.84c3.111,0.782,8.002,1.938,14.666,3.502l34.666,7.995
			c10.885,2.445,20.609,5.002,29.169,7.669c8.551,2.667,17.72,6.444,27.501,11.328c9.777,4.897,17.888,10.336,24.337,16.341
			c6.443,5.988,11.829,13.604,16.165,22.826c4.336,9.233,6.502,19.4,6.502,30.505C391.005,327.896,387.335,342.504,380.003,355.501z
			"/>
	</g>
</g>
</svg>
