<?xml version="1.0" encoding="utf-8"?>
<!-- Generator: Adobe Illustrator 19.2.0, SVG Export Plug-In . SVG Version: 6.00 Build 0)  -->
<svg version="1.1" id="Capa_1" xmlns="http://www.w3.org/2000/svg" xmlns:xlink="http://www.w3.org/1999/xlink" x="0px" y="0px"
	 viewBox="0 0 451.446 512" enable-background="new 0 0 451.446 512" xml:space="preserve">
<g>
	<path fill="#4D4B4B" d="M203.75,40h-47.941c-4.794,0-7.99,3.2-7.99,8s3.196,8,7.99,8h47.941c4.794,0,7.99-3.2,7.99-8
		S208.544,40,203.75,40z"/>
	<path fill="#4D4B4B" d="M121.451,42.399c-1.598,1.6-2.397,3.2-2.397,5.601s0.799,4.001,2.397,5.601
		c1.598,1.6,3.995,2.401,5.593,2.401c2.397,0,3.995-0.801,5.593-2.401c1.598-1.6,2.397-3.2,2.397-5.601
		c0-2.401-0.799-4.001-2.397-5.601C130.24,39.2,124.647,39.2,121.451,42.399z"/>
	<path fill="#4D4B4B" d="M187.77,247.201c1.598,1.6,3.995,2.401,5.593,2.401c1.598,0,3.995-0.801,5.593-2.401
		c3.196-3.2,3.196-8,0-11.2l-31.961-32.001c-3.196-3.2-7.99-3.2-11.186,0s-3.196,8,0,11.2L187.77,247.201z"/>
	<path fill="#4D4B4B" d="M98.279,210.401c-3.196,3.2-3.196,8,0,11.2l114.26,114.401c1.598,1.6,3.995,2.401,5.593,2.401
		c1.598,0,3.995-0.801,5.593-2.401c3.196-3.2,3.196-8,0-11.2l-114.26-114.401C106.27,207.201,101.475,207.201,98.279,210.401z"/>
	<path fill="#4D4B4B" d="M183.774,488.001c13.583,0,23.971-10.401,23.971-23.999c0-13.6-10.387-23.999-23.971-23.999
		c-13.583,0-23.971,10.401-23.971,23.999C159.804,477.6,170.191,488.001,183.774,488.001z M183.774,456c4.794,0,7.99,3.2,7.99,8
		s-3.196,8-7.99,8c-4.794,0-7.99-3.2-7.99-8C175.784,460.001,178.98,456,183.774,456z"/>
	<path fill="#4D4B4B" d="M413.093,144h-47.142l1.598-112C367.549,14.401,353.166,0,335.588,0H31.961C14.382,0,0,14.399,0,32.001v448
		c0,17.599,14.382,32.001,31.961,32.001h242.103h57.529h81.5c22.373,0,38.353-17.599,38.353-42.399V186.4
		C451.446,161.6,435.465,144,413.093,144z M139.828,176.8L59.127,96h208.544c4.794,0,7.99-3.2,7.99-8s-3.196-8-7.99-8H40.75h-0.799
		h-3.995c-4.794,0-7.99,3.2-7.99,8v336.001c0,4.8,3.196,8,7.99,8H227.72v37.6c0,10.401,3.995,19.199,11.186,26.4H31.961
		c-8.789,0-15.98-7.201-15.98-15.999v-448c0-8.801,7.191-15.999,15.98-15.999h303.627c8.789,0,15.98,7.201,15.98,15.999l-1.598,112
		h-18.377v-56c0-4.8-3.196-8-7.99-8h-15.98c-4.794,0-7.99,3.2-7.99,8c0,4.8,3.196,8,7.99,8h7.99v48h-40.75
		c-23.971,0-47.142,21.6-47.142,43.999v228H43.946V103.201l84.696,84.801c1.598,1.6,3.995,2.401,5.593,2.401
		c1.598,0,3.995-0.801,5.593-2.401C143.024,184.8,143.024,180,139.828,176.8z M435.465,469.601c0,12.8-7.191,26.4-22.372,26.4h-81.5
		h-56.73c-13.583,0-31.162-12-31.162-26.4V188c0-13.6,15.181-28,31.162-28h138.23c15.181,0,22.372,13.6,22.372,26.4L435.465,469.601
		L435.465,469.601z"/>
	<path fill="#4D4B4B" d="M343.578,460.001c-8.789,0-15.98,7.201-15.98,15.999c0,8.799,7.191,15.999,15.98,15.999
		c8.789,0,15.98-7.201,15.98-15.999C359.559,467.202,352.367,460.001,343.578,460.001z M343.578,484c-3.995,0-7.99-3.2-7.99-8
		c0-4.001,3.196-8,7.99-8c3.995,0,7.99,3.2,7.99,8C351.568,480.8,347.573,484,343.578,484z"/>
	<path fill="#4D4B4B" d="M323.603,192h31.961c4.794,0,7.99-3.2,7.99-8c0-4.8-3.196-8-7.99-8h-31.961c-4.794,0-7.99,3.2-7.99,8
		S318.809,192,323.603,192z"/>
	<path fill="#4D4B4B" d="M303.627,192.799c2.397,0,3.995-0.801,5.593-2.401s2.397-4.001,2.397-5.601s-0.799-4.001-2.397-5.601
		c-3.196-3.2-7.99-3.2-11.186,0c-1.598,1.6-2.397,4.001-2.397,5.601c0,2.401,0.799,4.001,2.397,5.601
		C299.632,192,302.029,192.799,303.627,192.799z"/>
	<path fill="#4D4B4B" d="M419.485,200H259.681c-4.794,0-7.99,3.2-7.99,8V448c0,4.8,3.196,8,7.99,8h159.804c4.794,0,7.99-3.2,7.99-8
		V208C427.475,203.2,424.279,200,419.485,200z M411.495,440.001H267.671V216h143.823V440.001z"/>
</g>
</svg>
