<?xml version="1.0" encoding="utf-8"?>
<!-- Generator: Adobe Illustrator 19.2.0, SVG Export Plug-In . SVG Version: 6.00 Build 0)  -->
<svg version="1.1" id="Capa_1" xmlns="http://www.w3.org/2000/svg" xmlns:xlink="http://www.w3.org/1999/xlink" x="0px" y="0px"
	 viewBox="0 0 512 395.061" enable-background="new 0 0 512 395.061" xml:space="preserve">
<g>
	<path fill="#4D4B4B" d="M508.711,126.951L437.166,35.13C419.769,12.804,393.559,0,365.255,0h-47.19
		c-6.541,0-12.385,4.086-14.631,10.231c-7.249,19.827-26.31,33.149-47.433,33.149s-40.182-13.322-47.433-33.149
		C206.323,4.086,200.478,0,193.938,0h-47.192c-28.302,0-54.514,12.804-71.911,35.132L3.292,126.951
		c-3.109,3.99-4.088,9.24-2.624,14.083s5.188,8.673,9.988,10.271l99.165,33.038v195.139c0,8.604,6.975,15.579,15.579,15.579h261.202
		c8.604,0,15.579-6.975,15.579-15.579V184.343l99.165-33.038c4.8-1.598,8.524-5.428,9.988-10.271
		C512.799,136.192,511.82,130.942,508.711,126.951z M402.181,151.503v-22.901c0-8.604-6.975-15.579-15.579-15.579
		s-15.579,6.975-15.579,15.579v235.301H140.977v-235.3c0-8.604-6.975-15.579-15.579-15.579s-15.579,6.975-15.579,15.579v22.901
		l-68.404-22.789L99.41,54.283c11.453-14.697,28.703-23.126,47.335-23.126h37.124c14.01,26.333,41.753,43.378,72.13,43.378
		s58.12-17.048,72.132-43.378h37.124c18.63,0,35.882,8.428,47.335,23.123l57.997,74.433L402.181,151.503z"/>
</g>
</svg>
