<?xml version="1.0" encoding="utf-8"?>
<!-- Generator: Adobe Illustrator 19.2.0, SVG Export Plug-In . SVG Version: 6.00 Build 0)  -->
<svg version="1.1" id="Capa_1" xmlns="http://www.w3.org/2000/svg" xmlns:xlink="http://www.w3.org/1999/xlink" x="0px" y="0px"
	 viewBox="0 0 356.3 512" enable-background="new 0 0 356.3 512" xml:space="preserve">
<path fill="#303030" d="M338.123,397.578l-10.678-17.83c-19.204-31.662-45.707-68.002-80.47-68.002
	c-6.44,0-12.819,1.295-19.132,3.919l-18.659,8.001c-1.704,0.707-3.36,1.51-5.113,2.362c-4.775,2.323-10.191,4.953-15.76,4.953
	c-13.74,0-29.66-17.88-44.82-50.346c-14.878-31.865-13.929-48.57-10.514-56.976c3.769-9.274,12.532-13.239,21.947-16.802
	c1.309-0.496,2.492-0.947,3.642-1.42l18.894-7.955c49.224-20.584,30.911-92.519,24.907-116.103l-5.092-20.277
	C192.923,44.39,181.381,0,143.099,0c-7.087,0-14.647,1.651-22.464,4.909c-5.129,2.037-75.708,30.847-101.278,81.46
	c-30.56,60.245-24.91,141.034,16.779,240.07c41.377,99.161,95.032,159.813,159.475,180.268c11.054,3.512,23.547,5.29,37.135,5.29
	c0,0,0.005,0,0.007,0c44.473,0,88.374-18.922,91.937-20.492c15.333-6.496,25.245-16.368,29.457-29.343
	C361.286,440.158,349.309,416.049,338.123,397.578z M321.196,451.471c-0.979,3.016-4.383,5.768-10.11,8.179
	c-0.095,0.042-0.21,0.09-0.307,0.134c-0.397,0.176-40.134,17.58-78.036,17.578c-10.027,0-18.993-1.233-26.651-3.667
	C151.8,456.461,105.375,402.432,68.079,313.053c-37.573-89.268-43.577-160.263-17.82-211.038c20-39.587,82.615-64.7,83.229-64.94
	c0.125-0.051,0.247-0.099,0.369-0.15c3.565-1.496,6.761-2.286,9.242-2.286c7.632,0,14.578,11.837,20.615,35.038l5.069,20.192
	c10.937,42.952,9.272,69.817-4.729,75.673l-18.804,7.921c-0.748,0.309-1.623,0.635-2.589,1.002
	c-10.387,3.933-32.001,12.112-41.776,36.156c-8.87,21.818-5.198,49.514,11.214,84.675c22.104,47.323,47.032,70.328,76.209,70.328
	c13.541,0,24.411-5.284,30.904-8.438c1.196-0.582,2.265-1.115,3.415-1.591l18.686-8.013c1.928-0.804,3.78-1.194,5.66-1.194
	c8.994,0,25.122,8.907,50.805,51.244l10.671,17.818C321.6,437.163,322.639,447.023,321.196,451.471z"/>
</svg>
