<svg  x="0px" y="0px"
	 viewBox="0 0 512 457.971" enable-background="new 0 0 512 457.971" xml:space="preserve">
<g>
	<path fill="#4D4B4B" d="M412.174,457.971c-3.999,0-7.972-1.184-11.379-3.494l-128.737-87.325l-69.047,49.683
		c-5.415,3.894-12.395,4.875-18.683,2.627c-6.28-2.254-11.049-7.455-12.752-13.906l-34.67-131.388L13.027,226.8
		C5.229,223.817,0.057,216.356,0,208.006s5.013-15.881,12.773-18.97L483.805,1.61c2.137-0.908,4.399-1.432,6.68-1.573
		c0.816-0.049,1.635-0.049,2.448-0.003c4.724,0.281,9.363,2.205,12.984,5.756c0.376,0.368,0.732,0.743,1.07,1.135
		c2.999,3.426,4.648,7.604,4.959,11.86c0.076,1.07,0.07,2.154-0.024,3.237c-0.065,0.773-0.176,1.543-0.332,2.308l-79.508,417.168
		c-1.278,6.702-5.84,12.311-12.141,14.924C417.441,457.46,414.801,457.971,412.174,457.971z M283.361,325.84l114.675,77.784
		L459.901,79.02l-223.44,215.006l46.359,31.449C283.007,325.591,283.186,325.715,283.361,325.84z M187.9,308.543l15.354,58.179
		l33.081-23.804l-43.317-29.384C191.005,312.172,189.281,310.475,187.9,308.543z M76.03,207.49l85.061,32.521
		c6.094,2.329,10.693,7.453,12.357,13.76l10.787,40.882c0.495-4.715,2.632-9.152,6.104-12.495L403.246,77.291L76.03,207.49z"/>
</g>
</svg>
