<?xml version="1.0" encoding="utf-8"?>
<!-- Generator: Adobe Illustrator 19.2.0, SVG Export Plug-In . SVG Version: 6.00 Build 0)  -->
<svg version="1.1" id="Capa_1" xmlns="http://www.w3.org/2000/svg" xmlns:xlink="http://www.w3.org/1999/xlink" x="0px" y="0px"
	 viewBox="0 0 512 451.072" enable-background="new 0 0 512 451.072" xml:space="preserve">
<g>
	<g>
		<path fill="#4D4B4B" d="M510.971,275.435c-2.956-7.475-11.423-11.152-18.907-8.186l-180.951,71.559
			c-12.433-28.085-40.527-47.759-73.168-47.759c-2.32,0-4.603,0.159-6.876,0.355L127.532,9.556
			c-2.666-7.241-10.469-11.17-17.906-8.925l-99.27,30.096c-7.709,2.339-12.059,10.478-9.73,18.177
			c2.329,7.69,10.459,12.022,18.177,9.72l86.107-26.111l97.988,266.74c-26.569,13.023-44.962,40.275-44.962,71.802
			c0,44.111,35.887,80.016,80.007,80.016s80.007-35.906,80.007-80.016c0-1.197-0.131-2.348-0.178-3.536l185.002-73.159
			C510.269,291.395,513.937,282.929,510.971,275.435z M237.944,421.921c-28.047,0-50.856-22.818-50.856-50.865
			c0-21.695,13.715-40.116,32.884-47.404c0.739,0.103,1.431,0.327,2.18,0.327c1.675,0,3.368-0.281,5.024-0.898
			c1.328-0.486,2.395-1.338,3.48-2.142c2.395-0.355,4.79-0.739,7.288-0.739c28.047,0,50.856,22.808,50.856,50.856
			C288.8,399.094,265.992,421.921,237.944,421.921z"/>
		<path fill="#4D4B4B" d="M237.944,327.161c-24.212,0-43.905,19.684-43.905,43.895c0,24.212,19.693,43.914,43.905,43.914
			s43.905-19.702,43.905-43.914C281.858,346.835,262.165,327.161,237.944,327.161z M237.944,385.81
			c-8.139,0-14.753-6.614-14.753-14.753c0-8.13,6.614-14.744,14.753-14.744s14.753,6.614,14.753,14.744
			C252.698,379.195,246.083,385.81,237.944,385.81z"/>
		<path fill="#4D4B4B" d="M250.929,183.893l50.837,135.176c1.357,3.63,4.098,6.539,7.615,8.148c1.918,0.861,3.967,1.3,6.025,1.3
			c1.74,0,3.48-0.309,5.136-0.945l135.157-50.837c7.54-2.835,11.348-11.226,8.513-18.758L413.395,122.83
			c-2.835-7.55-11.254-11.329-18.776-8.523l-15.923,5.997l-34.577-91.954c-1.366-3.639-4.107-6.549-7.625-8.158
			c-3.508-1.581-7.512-1.731-11.152-0.356L219.739,59.551c-7.54,2.835-11.348,11.226-8.513,18.767L250.929,183.893z
			 M431.787,254.601L323.92,295.175l-40.565-107.877l91.954-34.559c0.009,0,0.019-0.009,0.019-0.009l15.904-5.987L431.787,254.601z
			 M321.955,52.254l29.432,78.304l-78.314,29.432l-29.432-78.286L321.955,52.254z"/>
	</g>
</g>
</svg>
