<svg  x="0px" y="0px"
	 viewBox="0 0 512 512" enable-background="new 0 0 512 512" xml:space="preserve">
<g>
	<path fill="#4D4B4B" d="M450.173,57.28C409.701,17.601,344.269-1.624,255.662,0.108C166.317,1.865,106.594,17.547,67.712,49.461
		C30.118,80.315,12.61,125.463,12.61,191.545v67.442c0,78.012,41.803,163.777,121.699,176.754
		c9.224,1.509,17.913-4.762,19.411-13.988c1.498-9.221-4.764-17.913-13.988-19.411c-60.591-9.842-93.286-81.206-93.286-143.356
		v-67.442c0-94.754,35.11-154.172,209.879-157.61c79.232-1.57,136.419,14.425,170.156,47.503
		c26.29,25.781,39.071,61.796,39.071,110.106v67.442c0,102.126-45.839,147.17-163.407,160.434h-83.367
		c-4.487,0-8.791,1.782-11.962,4.956l-58.741,58.741c-6.607,6.607-6.607,17.319,0,23.926c3.302,3.302,7.633,4.956,11.962,4.956
		s8.66-1.651,11.962-4.956l53.788-53.788h77.304c0.623,0,1.247-0.034,1.868-0.104c67.284-7.473,113.359-24.984,144.996-55.112
		c33.265-31.679,49.436-77.164,49.436-139.056v-67.439C499.391,134.477,482.831,89.304,450.173,57.28z"/>
	<path fill="#4D4B4B" d="M266.559,110.503c0.002,0,0.002,0,0.007,0c27.26,0,52.89,10.618,72.167,29.895
		c19.28,19.28,29.897,44.914,29.895,72.179c0,9.343,7.572,16.918,16.916,16.918c0.002,0,0.002,0,0.002,0
		c9.343,0,16.918-7.572,16.918-16.916c0.002-36.304-14.134-70.435-39.805-96.105c-25.668-25.67-59.793-39.805-96.094-39.805
		c-0.002,0-0.009,0-0.011,0c-9.343,0-16.916,7.575-16.916,16.918C249.641,102.929,257.216,110.503,266.559,110.503z"/>
	<path fill="#4D4B4B" d="M266.555,169.996c23.478,0.005,42.581,19.106,42.584,42.581c0.002,9.343,7.575,16.918,16.92,16.916
		c9.345,0,16.918-7.577,16.916-16.92c-0.007-42.128-34.285-76.406-76.415-76.413h-0.002c-9.343,0-16.916,7.572-16.918,16.916
		C249.639,162.419,257.211,169.996,266.555,169.996z"/>
	<path fill="#4D4B4B" d="M190.695,198.984c-7.712,5.274-9.691,15.801-4.419,23.514c5.272,7.712,15.801,9.688,23.514,4.417
		c6.066-4.146,20.272-13.859,19.275-33.276c-0.632-11.621-11.114-28.215-19.796-40.089c-12.7-17.374-23.645-27.838-32.462-31.082
		c-8.233-3.066-16.844-3.131-25.609-0.189c-18.156,6.118-31.339,17.173-38.12,31.97c-6.603,14.405-6.456,30.96,0.426,47.885
		c16.255,39.877,39.011,74.789,67.787,103.914c28.975,28.623,63.884,51.379,103.777,67.642c8.633,3.512,17.173,5.269,25.381,5.269
		c7.872,0,15.44-1.615,22.492-4.848c14.798-6.783,25.851-19.963,31.975-38.142c2.932-8.745,2.867-17.351-0.174-25.528
		c-3.266-8.881-13.733-19.823-31.104-32.523c-11.876-8.682-28.47-19.165-40.136-19.799c-19.377-0.974-29.081,13.207-33.227,19.273
		c-5.274,7.712-3.3,18.24,4.412,23.516c7.715,5.276,18.24,3.3,23.516-4.412c1.841-2.691,2.892-3.914,3.494-4.448
		c9.497,3.043,36.577,22.938,41.451,30.563c0.12,0.487,0.147,1.229-0.305,2.581c-2.134,6.336-6.296,14.631-13.999,18.163
		c-7.216,3.302-15.416,1.277-21.014-0.999c-35.746-14.574-66.954-34.887-92.616-60.235c-25.492-25.803-45.805-57.011-60.37-92.744
		c-2.283-5.612-4.311-13.816-1.006-21.026c3.53-7.703,11.827-11.867,18.143-13.997c1.349-0.451,2.091-0.426,2.605-0.302
		c7.627,4.884,27.511,31.948,30.556,41.447C194.606,196.092,193.386,197.146,190.695,198.984z"/>
</g>
</svg>
