<svg x="0px" y="0px"
	 viewBox="0 0 512 512" enable-background="new 0 0 512 512" xml:space="preserve">
<g>
	<path id="WhatsApp" fill="#4D4B4B" d="M512,249.407c0,137.745-112.521,249.407-251.346,249.407
		c-44.072,0-85.476-11.264-121.498-31.033L0,512l45.369-133.814C22.482,340.605,9.301,296.528,9.301,249.407
		C9.301,111.662,121.833,0,260.654,0C399.491,0,512,111.662,512,249.407z M260.654,39.72c-116.531,0-211.319,94.066-211.319,209.687
		c0,45.881,14.956,88.371,40.255,122.937l-26.402,77.875l81.209-25.811c33.365,21.908,73.335,34.685,116.264,34.685
		c116.514,0,211.319-94.054,211.319-209.675S377.179,39.72,260.654,39.72z M387.578,306.847c-1.553-2.543-5.655-4.079-11.81-7.134
		c-6.167-3.055-36.466-17.852-42.098-19.883c-5.649-2.037-9.768-3.061-13.87,3.055c-4.102,6.121-15.912,19.883-19.513,23.962
		c-3.595,4.09-7.185,4.602-13.352,1.542c-6.155-3.055-26.004-9.517-49.539-30.339c-18.313-16.202-30.68-36.204-34.276-42.331
		c-3.59-6.116-0.375-9.421,2.702-12.464c2.776-2.742,6.167-7.14,9.244-10.706c3.089-3.573,4.113-6.116,6.155-10.2
		c2.065-4.079,1.035-7.646-0.512-10.712c-1.536-3.055-13.87-33.138-19.001-45.38c-5.131-12.231-10.257-10.194-13.858-10.194
		c-3.59,0-7.703-0.512-11.81-0.512s-10.786,1.53-16.435,7.646c-5.643,6.121-21.555,20.912-21.555,50.99
		c0,30.083,22.067,59.147,25.156,63.221c3.078,4.073,42.61,67.812,105.244,92.291c62.64,24.468,62.64,16.304,73.939,15.28
		c11.287-1.018,36.443-14.785,41.597-29.053C389.109,321.633,389.109,309.396,387.578,306.847z"/>
</g>
</svg>
